<?xml version="1.0" encoding="UTF-8"?>
<svg xmlns="http://www.w3.org/2000/svg" xmlns:xlink="http://www.w3.org/1999/xlink" viewBox="0 0 0 0" style="display: none;">
  <symbol id="ci-cd" viewBox="0 0 50 50">
<defs><style>.cls-1{fill:#231f20;}.cls-2{fill:#ffba50;}.cls-3{fill:#7cc05b;}.cls-4{fill:#8d7f89;}</style></defs><title/><path class="cls-1" d="M8.513,25.5h9.875a3.1,3.1,0,0,0,3.058,2.608h7.108A3.1,3.1,0,0,0,31.612,25.5h9.875A4.017,4.017,0,0,0,45.5,21.487V16.833a4.007,4.007,0,0,0-3.784-3.99,3.105,3.105,0,0,0-3.057-2.6H31.551A3.107,3.107,0,0,0,28.5,12.82H22.2V11.492a.5.5,0,0,0-.43-.5l-2.047-.289,1.243-1.65a.5.5,0,0,0-.045-.654L18.292,5.779a.5.5,0,0,0-.654-.046L15.987,6.977,15.7,4.93A.5.5,0,0,0,15.2,4.5H11.492a.5.5,0,0,0-.5.43l-.289,2.047L9.058,5.733a.5.5,0,0,0-.654.046L5.779,8.4a.5.5,0,0,0-.046.654l1.244,1.65L4.93,11a.5.5,0,0,0-.43.5V15.2a.5.5,0,0,0,.43.495l2.047.288L5.733,17.638a.5.5,0,0,0,.046.654L8.4,20.917a.5.5,0,0,0,.654.046l1.65-1.243L11,21.766a.5.5,0,0,0,.5.43H15.2a.5.5,0,0,0,.495-.43l.288-2.047,1.651,1.244a.5.5,0,0,0,.654-.046l2.625-2.625a.5.5,0,0,0,.045-.654l-1.243-1.651,2.047-.288a.5.5,0,0,0,.43-.495V13.82H28.49a3.1,3.1,0,0,0,3.061,2.636h7.108a3.1,3.1,0,0,0,3.058-2.613,3.008,3.008,0,0,1,2.783,2.99v4.654A3.017,3.017,0,0,1,41.487,24.5H31.612a3.1,3.1,0,0,0-3.058-2.608H21.446A3.1,3.1,0,0,0,18.388,24.5H8.513A4.017,4.017,0,0,0,4.5,28.513v4.654a4.007,4.007,0,0,0,3.784,3.99,3.105,3.105,0,0,0,3.057,2.6h7.108A3.107,3.107,0,0,0,21.5,37.18h6.142a8.958,8.958,0,1,0-.012-1H21.51a3.1,3.1,0,0,0-3.061-2.636H11.341a3.1,3.1,0,0,0-3.058,2.613A3.008,3.008,0,0,1,5.5,33.167V28.513A3.017,3.017,0,0,1,8.513,25.5Zm4.835-8.582a3.57,3.57,0,1,1,3.57-3.57A3.574,3.574,0,0,1,13.348,16.918Z"/><path class="cls-2" d="M38.659,15.456H31.551a2.108,2.108,0,1,1,0-4.216h7.108a2.108,2.108,0,1,1,0,4.216Z"/><path class="cls-2" d="M21.446,22.892h7.108a2.108,2.108,0,0,1,2.105,2.076c0,.011-.006.021-.006.032s.006.021.006.032a2.108,2.108,0,0,1-2.105,2.076H21.446a2.108,2.108,0,0,1-2.105-2.076c0-.011.006-.021.006-.032s-.006-.021-.006-.032A2.108,2.108,0,0,1,21.446,22.892Z"/><path class="cls-2" d="M11.341,34.544h7.108a2.108,2.108,0,1,1,0,4.216H11.341a2.108,2.108,0,0,1,0-4.216Z"/><circle class="cls-1" cx="22.482" cy="25" r="0.502"/><circle class="cls-1" cx="25.024" cy="25" r="0.502"/><circle class="cls-1" cx="27.518" cy="25" r="0.502"/><circle class="cls-1" cx="32.587" cy="13.348" r="0.502"/><circle class="cls-1" cx="35.129" cy="13.348" r="0.502"/><circle class="cls-1" cx="37.622" cy="13.348" r="0.502"/><circle class="cls-1" cx="17.413" cy="36.652" r="0.502"/><circle class="cls-1" cx="14.871" cy="36.652" r="0.502"/><circle class="cls-1" cx="12.378" cy="36.652" r="0.502"/><path class="cls-3" d="M36.557,28.615a7.943,7.943,0,1,1-7.942,7.942A7.952,7.952,0,0,1,36.557,28.615Z"/><path class="cls-4" d="M18.74,15.115,21.2,14.77V11.927l-2.456-.346a.5.5,0,0,1-.33-.8L19.9,8.8l-2.01-2.011L15.911,8.286a.5.5,0,0,1-.8-.33L14.77,5.5H11.926l-.345,2.456a.5.5,0,0,1-.8.33L8.8,6.793,6.793,8.8l1.493,1.981a.5.5,0,0,1-.33.8L5.5,11.927V14.77l2.456.345a.5.5,0,0,1,.33.8L6.793,17.892,8.8,19.9l1.981-1.493a.5.5,0,0,1,.8.33l.345,2.456H14.77l.345-2.456a.5.5,0,0,1,.8-.33L17.892,19.9l2.01-2.011L18.41,15.911a.5.5,0,0,1,.33-.8Zm-5.392,1.8a3.57,3.57,0,1,1,3.57-3.57A3.574,3.574,0,0,1,13.348,16.918Z"/><path class="cls-1" d="M13.348,8.778a4.57,4.57,0,1,0,4.57,4.57A4.575,4.575,0,0,0,13.348,8.778Zm0,8.14a3.57,3.57,0,1,1,3.57-3.57A3.574,3.574,0,0,1,13.348,16.918Z"/><path class="cls-1" d="M35.751,38.763a.5.5,0,0,0,.707,0l4.124-4.124a.5.5,0,0,0-.707-.707L36.1,37.7,34.272,35.87a.5.5,0,0,0-.707.707Z"/>
  </symbol>
  <symbol id="css" viewBox="0 0 32 32">

<path d="M6 28L4 3H28L26 28L16 31L6 28Z" fill="#1172B8"/>
<path d="M26 5H16V29.5L24 27L26 5Z" fill="#33AADD"/>
<path d="M19.5 17.5H9.5L9 14L17 11.5H9L8.5 8.5H24L23.5 12L17 14.5H23L22 24L16 26L10 24L9.5 19H12.5L13 21.5L16 22.5L19 21.5L19.5 17.5Z" fill="white"/>

  </symbol>
  <symbol id="docker" viewBox="0 0 32 32">

<circle cx="16" cy="16" r="14" fill="#1794D4"/>
<path d="M18 7H16V9H18V7Z" fill="white"/>
<path d="M10 10H12V12H10V10Z" fill="white"/>
<path d="M6.00155 16.9414C6.17244 19.8427 7.90027 24 14 24C20.8 24 23.8333 19 24.5 16.5C25.3333 16.5 27.2 16 28 14C27.5 13.5 25.5 13.5 24.5 14C24.5 13.2 24 11.5 23 11C22.3333 11.6667 21.3 13.4 22.5 15C22 16 20.6667 16 20 16H6.9429C6.41342 16 5.97041 16.4128 6.00155 16.9414Z" fill="white"/>
<path d="M9 13H7V15H9V13Z" fill="white"/>
<path d="M10 13H12V15H10V13Z" fill="white"/>
<path d="M15 13H13V15H15V13Z" fill="white"/>
<path d="M16 13H18V15H16V13Z" fill="white"/>
<path d="M21 13H19V15H21V13Z" fill="white"/>
<path d="M15 10H13V12H15V10Z" fill="white"/>
<path d="M16 10H18V12H16V10Z" fill="white"/>

  </symbol>
  <symbol id="flask" viewBox="0 0 512 512">


<g id="e6c6b53d3c8160b22dad35a0f7103ecc">

<path display="inline" fill-rule="evenodd" clip-rule="evenodd" d="M145.973,124.482c-1.766-15.299,12.003-8.814,10.244,0.41
		C153.633,127.35,148.86,125.334,145.973,124.482z M162.363,121.613c3.468-0.354,6.774-0.874,7.787-3.687
		c-4.797-2.957-11.965,4.339-9.016,7.787C162.771,125.574,161.323,122.351,162.363,121.613z M116.468,131.038
		c2.888-1.343,7.633-0.836,9.016-3.687c-8.596-2.994-24.076-0.784-26.638,4.917C105.399,131.863,110.879,126.663,116.468,131.038z
		 M97.207,132.679c-1.862-0.391-2.58,1.724-1.638,2.867C97.024,135.498,97.218,134.19,97.207,132.679z M92.699,140.875
		c-0.262-3.909-9.718-7.03-10.653-1.639C82.864,142.297,90.491,144.266,92.699,140.875z M76.719,137.188
		c-1.953,0.091-2.957,1.142-4.099,2.048C74.106,140.102,77.398,139.792,76.719,137.188z M71.803,148.25
		c7.218-0.507,9.415,6.13,15.569,5.327C88.519,146.433,73.837,136.606,71.803,148.25z M169.329,183.899
		c-2.152-7.142,4.438-13.272,0.409-18.851c-5.578,0.445-10.402,26.334-2.458,26.23c5.704-0.079,7.715-15.738,8.194-20.898
		C171.298,172.754,173.117,181.132,169.329,183.899z M100.896,181.034c0.124-1.083-0.568-1.347-1.639-1.233
		C99.284,180.907,100.193,181.772,100.896,181.034z M120.976,192.917c0.079-2.539-0.021-4.897-2.048-5.327
		c-1.543-0.175-1.451,1.281-2.46,1.641C117.031,191.397,118.175,192.988,120.976,192.917z M101.306,206.031
		c7.857,0.884,13.118,6.552,20.489,6.554c-5.878-3.957-11.985-7.683-21.309-8.194C100.189,205.509,101.3,205.216,101.306,206.031z
		 M163.183,212.177c-0.611-2.805-1.828-5.005-3.277-6.968C160.439,208.089,161.174,210.768,163.183,212.177z M118.106,221.191
		c-5.143-6.882-13.337-12.879-22.537-14.343C96.868,217.841,109.088,217.92,118.106,221.191z M104.175,223.648
		c-3.512-5.911-9.533-9.317-16.803-11.471C91.458,217.255,95.201,224.823,104.175,223.648z M85.324,217.914
		c1.399,2.429,4.916,4.912,4.099,8.195c-3.593-1.05-5.34-3.949-9.016-4.917c1.952,2.711,9.402,14.729,13.931,14.345
		c2.891-0.25,4.198-3.441,3.688-8.606C95.811,222.176,88.76,220.078,85.324,217.914z M106.223,228.568
		c0.911,2.505,1.231,5.598,4.509,5.735C110.174,231.448,108.506,229.699,106.223,228.568z M103.354,229.799
		c-1.528-0.167-2.403,0.324-2.457,1.636c0.459,0.09,0.638,0.454,0.818,0.819C103.025,232.203,103.521,231.327,103.354,229.799z
		 M173.427,239.222c0.427-2.316,0.861-6.778,0-9.016C172.901,232.508,170.922,237.686,173.427,239.222z M144.743,230.616
		c0.313,2.422-0.858,6.323,1.229,6.97C146.063,235.793,146.481,231.755,144.743,230.616z M164.002,240.042
		c-1.189-1.054-2.895,0.539-3.688-0.408c-0.838-2.713-0.491-6.61-2.868-7.787c-0.271,0-0.546,0-0.818,0
		c-3.375,6.99-3.042,22.007,2.867,25.814c1.116,1.891,1.225,4.787,4.098,4.92c2.362-1.875,2.942-5.524,3.279-9.428
		C161.743,252.076,166.521,243.235,164.002,240.042z M176.297,244.547c0.505-3.628,3.607-8.905,1.229-12.7
		C176.741,235.438,175.255,240.499,176.297,244.547z M104.175,247.83c0.653-1.873,0.14-5.05-1.23-6.148
		C101.989,243.476,101.433,247.608,104.175,247.83z M111.55,249.467c1.655,1.077,1.782,3.68,4.099,4.098
		C118.532,249.885,113.063,243.399,111.55,249.467z M181.623,257.661c0.003,1.256-1.643,2.974-0.409,4.097
		C181.451,260.743,182.698,258.631,181.623,257.661z M185.31,273.643c-0.017-1.892,0.231-4.05-0.818-4.915
		C184.308,270.187,183.227,273.418,185.31,273.643z M133.269,290.447c0.243,1.526,0.492,3.057,2.048,3.277
		C136.322,292.318,135.58,289.828,133.269,290.447z M151.709,292.497c0.57,1.082,2.208,3.231,3.277,2.454
		C154.038,294.252,152.944,291.55,151.709,292.497z M190.637,297.005c-1.151,4.879,1.574,9.324,3.689,12.293
		C195.192,304.541,195.111,297.729,190.637,297.005z M200.884,328.552c0.619-1.239,0.838-5.057-0.41-5.73
		C199.395,324.302,198.433,327.845,200.884,328.552z M219.32,348.226c-0.593-3.011-2.952-6.263-5.325-6.15
		C214.825,345.069,214.969,348.754,219.32,348.226z M223.012,353.961c0.017,1.896-0.229,4.059,0.818,4.915
		C223.883,356.917,223.855,355.029,223.012,353.961z M87.782,354.372c0.006,1.501,0.809,2.196,1.641,2.869
		C89.259,355.898,89.067,354.593,87.782,354.372z M237.764,376.907c-1.009-7.727-5.073-12.404-10.244-15.977
		C228.26,368.927,232.179,373.755,237.764,376.907z M303.74,417.478c-0.249-0.232-1.946-0.956-2.05,0
		C302.306,417.952,303.416,418.917,303.74,417.478z M511.501,447.802c0,1.506,0,3.003,0,4.508c-0.666,1.385-0.882,3.215-1.231,4.916
		c-11.395,7.318-32.803,4.624-42.209,13.935c-16.497-8.887-31.829,5.111-49.17,6.559c-2.865,0.236-6.051-0.241-9.021,0
		c-10.246,0.827-20.252,3.223-30.731,4.096c-10.745,0.895-21.512,1.551-32.781,2.05c-4.101,0-8.196,0-12.293,0
		c-50.825-2.669-101.077-9.506-138.508-26.228c-18.661-8.338-35.838-18.567-51.632-30.735c-15.37-11.835-31.147-24.993-42.21-39.747
		c-11.778-15.711-23.562-30.989-34.012-48.352c-10.081-16.759-19.504-34.412-27.864-54.094
		c-8.247-19.408-14.123-38.613-19.672-62.287c-3.627-15.484-7.455-33.015-13.932-47.534c-2.522-5.654-5.458-10.282-5.736-15.574
		c0-1.227,0-2.46,0-3.687c2.021-17.212,15.407-27.203,31.143-31.965c3.94-1.191,7.771-2.329,11.474-4.508
		c0.241-0.139,2.602-0.38,1.641-1.638c-7.011-1.687-12.779,8.635-20.489,5.737c-6.845-2.574-2.904-13.172,4.508-16.391
		c3.46-1.503,10.33-1.894,13.521-3.688c5.502-3.092,7.999-9.625,6.968-15.572c-0.611-3.514-4.258-5.364-4.098-8.196
		c0.224-3.949,7.285-7.383,10.653-9.835c4.121-2.999,8.999-6.745,8.606-11.474c-0.414-4.94-6.224-6.514-9.016-10.244
		C51.027,42,50.332,33.25,57.458,29.821c7.471-3.595,21.39-1.636,22.949,7.787c1.374,8.305-4.522,11.469-2.051,17.62
		c4.604,11.446,40.409-6.672,31.556,17.212c7.874,12.343,38.645,1.784,39.339,21.309c12.834,0.258,18.732,9.997,29.094,13.933
		c2.777,1.054,6.084,1.054,9.016,2.048c17.476,5.94,39.132,12.312,46.305,29.095c-6.482,4.367-15.328,1.443-22.946-1.229
		c-6.627-2.327-16.287-6.935-22.949-4.099c-6.605,2.813-6.252,14.098-5.327,25.405c2.46,30.102,3.903,61.151,8.194,88.104
		c5.993,37.623,18.803,67.756,36.883,91.384c17.49,22.859,38.037,46.796,64.743,63.518c22.535,14.105,47.853,25.234,79.91,32.37
		c4.754,1.061,10.501,3.377,13.112,2.869c3.871-0.744,12.201-12.001,15.166-14.75c7.049-6.554,16.534-15.724,26.631-7.789
		c-1.372,10.925-11.161,13.433-13.523,23.362c6.071,3.863,12.509,0.366,20.082,0.815c8.812,0.524,15.569,5.577,22.951,4.508
		c4.711-0.682,7.069-4.191,10.653-6.554C475.388,448.642,506.78,433.147,511.501,447.802z M422.574,417.478
		c-0.174-1.322,0.541-3.543-0.818-3.684C420.574,414.393,419.406,418.16,422.574,417.478z M216.457,128.99
		c4.014,2.404,7.548,5.292,11.063,8.199c2.116-6.231-3.957-10.217-11.063-9.837C216.457,127.896,216.457,128.443,216.457,128.99z
		 M326.688,431.001c1.563,0.329,2.694,0.641,2.869-1.227C328.097,429.679,327.104,430.045,326.688,431.001z M270.136,394.938
		c-0.138,1.93,3.755,1.967,4.512,1.639C274.007,395.296,272.065,393.633,270.136,394.938z M260.301,387.154
		c0.682,0.69,2.407,0.324,3.688,0.411c0.137-1.501-0.458-2.278-0.819-3.281C261.016,384.048,260.421,385.361,260.301,387.154z
		 M181.623,219.55c-1.112-0.942-1.919,0.784-2.459,0c1.335-10.166,3.48-25.818-0.819-34.418c-1.063-0.928-2.745,0.326-3.277-0.412
		c2.861-6.83,4.793-21.075,3.687-29.504c-0.389-2.971-1.932-8.255-3.687-9.425c-4.41-2.936-8.423,1.576-11.476,2.459
		c-1.921,0.56-4.057,0.16-6.146,0.408c-8.263,0.996-17.031,3.46-22.537,6.146c2.87,1.913,6.938,2.624,8.194,6.146
		c-7.14-0.505-12.71-2.583-18.851-4.096c0.655,9.245-10.683,6.348-17.619,6.968c2.396,0.052,2.78,1.21,2.869,2.867
		c0.285,5.439-17.613,11.885-23.768,7.789c-8.779,7.078,3.863,14.308,3.278,23.358c-1.726,1.279-2.523,3.485-4.098,4.913
		c-8.725,0.212-17.902,1.967-16.394,11.066c-1.179-0.688-3.039-1.147-4.508-0.412c-2.23,5.745,1.514,11.981,6.559,13.116
		c1.271-0.37,1.567-1.711,3.278-1.639c11.396,2.179,15.408,9.737,14.753,24.174c-0.114,2.486,0.133,5.73-1.639,7.379
		c-6.467-0.443-12.463-16.405-2.05-16.8c-2.497-3.674-4.388-9.155-9.016-9.018c-5.305,0.158-7.686,8.542-11.474,11.475
		c5.46,3.017,18.283,11.343,7.785,16.801c5.197,0.779,8.097,2.84,10.244,5.734c3.578,4.832,3.464,12.072,6.148,15.985
		c5.431,7.922,8.298-7.106,14.75-0.823c1.524,0.524-0.671-1.48-0.819-1.635c-5.535-5.976-13.977-10.874-17.21-18.031
		c2.485-1.139,5.816,0.104,8.194,0.408c0.94-4.814-2.405-10.262-1.229-13.936c0.847-2.634,2.41-1.474,4.099-2.456
		c0.993-0.578,0.216-2.73,2.05-2.048c-0.011,5.626-3.401,15.094,0.407,19.259c5.561,0.998,7.167-8.565,11.886-8.605
		c2.636-0.023,5.127,4.617,6.965,6.966c2.208,2.819,5.209,6.283,4.508,9.423c-1.476,6.62-12.594,1.58-16.391-1.23
		c2.314,9.186,16.553,10.612,17.21,22.543c0.075,1.331-0.597,3.031-0.409,4.504c0.805,6.296,6.676,10.975,12.702,6.97
		c0.886,2.258,1.002,5.285,3.281,6.146c1.996-1.688,1.287-6.089,2.457-8.608c7.15,1.497,10.883,4.94,13.112,10.654
		c1.104,2.827,0.819,8.067,5.327,8.196c0.69-6.986-4.784-11.315-5.735-18.031c3.673,5.926,16.922,12.338,16.392,21.72
		c-0.352,6.188-7.706,6.861-14.753,7.785c6.716,2.308,9.529,9.83,16.801,12.292c1.954,0.666,4.464,0.096,6.556,0.823
		c5.321,1.851,13.829,12.759,11.476,19.67c-11.338,5.714-20.184-9.73-32.784-9.423c5.313,6.774,14.004,9.028,21.309,12.293
		c7.862,3.51,15.734,7.106,23.358,10.653c17.972,8.359,30.447,19.296,42.209,33.193c-8.161,4.45-32.897-2.952-18.031-8.2
		c-5.171-0.175-10.644-3.418-15.164-1.634c2.396,15.636,22.968,13.095,38.522,15.569c-1.416,2.682-3.412,4.786-4.919,7.377
		c1.199,0.707,2.856,0.965,4.919,0.819c-0.996,1.597-3.589,1.601-3.69,4.096c1.992,2.653,5.935,3.356,8.606,5.327
		c10.531-7.552,11.712,9.581,18.44,9.835c6.358,0.237,7.577-8.899,13.936-9.835c-1.598,3.323-4.725,5.111-6.146,8.608
		c6.226-1.505,8.001-4.857,13.107-6.15c18.298-4.629,33.298,10.612,48.355,12.297c5.414,0.603,10.796,3.643,15.573,4.508
		c6.176,1.114,9.973-0.919,14.751-3.277c-7.277-6.795-23.986-4.149-29.912-12.297c0.229-1.409,1.193-2.083,2.05-2.865
		c-19.18,4.213-31.256-7.281-39.34-18.031c-23.662-6.112-44.421-15.133-54.504-34.831c-0.484-1.855,1.817-0.915,1.233-2.87
		c-8.319-9.257-16.634-18.655-23.358-29.505c-2.324-3.746-3.915-8.454-6.558-11.473c-1.674-1.913-4.483-2.966-6.146-4.92
		c-1.821-2.142-2.069-4.824-4.92-5.734c-1.096,1.634-0.361,5.098-1.227,6.965c-1.971-7.913-6.362-15.428-14.752-15.573
		c-0.156-5.755,4.493-6.703,6.965-9.835c-3.254-3.913-4.038-8.841-5.736-14.75c-4.128-14.359-7.539-29.359-11.066-42.62
		c-4.674,1.745-5.913,6.926-8.194,11.065c0.225-5.92,0.502-11.792,3.689-14.755c1.457,0.183,1.617,1.664,2.457,2.46
		c0.77-2.792,3.412-5.396,2.048-9.014c-1.058-1.634-4.151-0.872-4.915-0.819C182.414,234.271,184.112,225.289,181.623,219.55z
		 M346.357,462.557c3.543-1.514,6.732-3.377,8.192-6.97C350.698,456.552,345.268,458.007,346.357,462.557z M346.765,454.36
		c-2.37,1.313-5.036,2.341-6.554,4.508C343.608,459.071,347.588,455.661,346.765,454.36z M334.064,460.506
		c2.32-0.619,4.803-3.015,4.508-4.919C335.878,455.857,331.711,457.778,334.064,460.506z M335.703,451.079
		c-3.688-1.165-6.699,1.722-6.97,5.331C332.019,455.595,334.243,453.72,335.703,451.079z M324.226,451.902
		c-3.602,0.628-6.296,2.162-7.377,5.323C321.252,458.972,323.506,455.188,324.226,451.902z M318.491,462.557
		c1.015,0.058,1.987,0.074,2.05-0.823C319.926,461.084,318.204,461.134,318.491,462.557z M325.049,444.933
		c-5.734-0.44-12.592,3.281-9.016,8.196C319.851,451.208,323.718,449.341,325.049,444.933z M296.771,452.722
		c3.581,0.503,4.517-3.593,6.97-2.874c1.423,0.898,0.558,4.088,2.865,4.101c5.36-1.09,7.29-8.404,4.097-13.523
		C303.479,441.697,296.87,445.673,296.771,452.722z M298.409,442.067c-2.175,1.102-4.491,2.059-5.734,4.096
		C295.356,446.047,299.349,443.09,298.409,442.067z M286.94,444.117c0.229,1.09-1.688,2.084-0.416,2.865
		C286.865,446.467,289.02,444.441,286.94,444.117z M279.563,453.948c-0.129,0.558-0.586,0.782-0.407,1.639c0.541,0,1.09,0,1.639,0
		C280.906,454.514,280.64,453.827,279.563,453.948z M273.417,451.902c-2.071,0.116-2.854,1.518-2.87,3.685
		C272.331,455.191,273.957,454.63,273.417,451.902z M232.024,431.001c-2.525-0.111-3.295,0.279-0.407,0.824
		c2.751,0.507,7.604,0.773,9.426,0C238.88,431.8,233.291,431.06,232.024,431.001z M244.321,424.447
		c-2.144-1.63-6.454-0.449-8.605,0.408C236.957,428.265,243.051,426.751,244.321,424.447z M231.21,455.179
		c10.22,5.356,24.292,11.203,38.926,9.424C259.502,459.396,243.688,457.175,231.21,455.179z M216.046,450.671
		c0.979,1.344,3.291,1.352,4.915,2.051C223.986,449.798,217.337,448.151,216.046,450.671z M177.525,417.478
		c-2.766,0.241-5.776,0.233-6.556,2.462C173.604,420.917,177.417,420.31,177.525,417.478z M169.738,428.132
		c0.963,0.873,2.734,1.913,3.279,0C172.593,427.699,170.092,427.288,169.738,428.132z M174.656,393.3
		c0.372-1.713-2.891-2.361-3.277-0.818C172.277,392.946,173.055,393.537,174.656,393.3z M179.985,407.231
		c-0.02-0.562,0.193-0.898,0.409-1.227c-1.221-1.261-3.69-1.485-5.738-0.819C174.984,407.156,178.266,407.979,179.985,407.231z
		 M180.395,433.463c0.524,0.558,1.934,0.558,2.458,0c0.193-1.289-0.512-1.676-1.229-2.054
		C181.256,432.137,180.634,432.606,180.395,433.463z M193.099,386.335c-1.335-3.859-5.688-2.841-8.607-4.097
		c-4.691-2.021-8.696-6.845-14.753-6.965c-0.272,0-0.547,0-0.817,0C174.19,381.481,181.162,388.152,193.099,386.335z
		 M171.788,371.177c-3.825-2.599-8.015-4.832-13.523-5.738C160.016,369.834,166.832,371.348,171.788,371.177z M184.491,390.431
		c2.873,3.003,6.479,5.273,12.704,4.916C194.802,392.136,189.084,390.077,184.491,390.431z M200.063,408.874
		c-4.219-2.924-10.855-7.668-16.391-6.559C186.874,406.491,193.311,409.618,200.063,408.874z M184.491,424.447
		c-0.099,0.583-0.674,0.687-0.819,1.223C184.682,426.988,186.202,424.722,184.491,424.447z M193.916,436.74
		c0.348,1.563,1.853,1.971,3.279,2.458c0.555-0.948,1.646-1.36,1.229-3.277C197.428,435.322,193.846,434.977,193.916,436.74z
		 M201.703,418.709c-1.269-0.777-5.897-1.646-6.968,0C196.723,419.516,200.628,421.604,201.703,418.709z M202.932,404.773
		c0.41-3.048-3.038-3.061-4.508-2.05C198.562,404.773,201.274,404.25,202.932,404.773z M207.439,382.646
		c-1.851-2.795-6.992-2.296-10.654-3.277c-2.682-3.368-9.095-4.591-14.752-3.688C188.512,379.997,195.881,383.415,207.439,382.646z
		 M206.62,421.985c1.76,1.519,4.519,2.038,6.966,2.87c0.131-0.965,0.646-1.539,0.409-2.87
		C212.802,420.609,207.625,419.898,206.62,421.985z M171.788,355.599c0.41-1.912-0.715-2.287-2.459-2.046
		C168.711,355.674,170.755,355.129,171.788,355.599z M181.623,360.519c-1.197-0.304-0.794-2.208-2.459-2.05
		C177.654,359.854,180.374,361.962,181.623,360.519z M153.348,363.388c-1.36-3.007-4.425-4.316-6.556-6.558
		c3.996-5.789-4.92-8.159-6.557-12.293c-0.019-1.247,0.865-1.593,1.229-2.462c-3.443-2.017-7.419-3.505-9.426-6.961
		c1.585-1.147,5.81,0.341,7.375-0.823c-2.482-1.069-5.162-1.938-6.146-4.508c1.437-3.344,7.279-2.279,8.605-5.735
		c-7.059-1.559-14.072-5.31-21.72-4.919c0.087,2.919,2.685,3.326,3.688,5.327c-2.267-1.007-4.101-2.458-7.375-2.458
		c-0.245,2.021,1.064,2.487,0.821,4.508c-2.235,0.183-3.368-0.731-5.739-0.407c1.69,3.771,6.024,4.902,7.378,9.016
		c-1.676,0.424-3.951-0.666-4.508,0c4.326,3.593,10.644,7.381,13.111,11.469c-4.025-0.748-6.329-3.227-10.242-4.096
		c3.276,6.487,11.253,7.839,17.21,11.065C140.594,356.854,146.058,362.178,153.348,363.388z M144.332,368.304
		c1.713,0.936,5.123,3.908,7.377,1.643C149.809,369.105,146.82,367.193,144.332,368.304z M141.055,366.253
		c-1.153-1.867-7.036-2.861-8.604-1.639C135.125,365.384,137.645,367.459,141.055,366.253z M133.678,367.484
		c-0.129,0.557-0.582,0.781-0.409,1.643c0.721-0.237,2.407,0.49,2.459-0.412C135.092,368.258,134.873,367.384,133.678,367.484z
		 M128.351,312.982c-1.118-3.851-2.611-8.071-5.736-11.062c-1.683-1.613-3.313-1.58-4.508-3.693
		c-3.167-5.572-1.649-13.439-5.737-19.254c-0.967-0.315-2.832-0.811-3.688,0c0.077,2.687,6.313,9.058,2.051,12.293
		c-9.424,0.374-13.052-7.128-22.128-5.739c-2.044,5.294,5.182,8.014,3.276,11.886C104.917,301.597,115.27,310.662,128.351,312.982z
		 M98.846,325.275c2.408,1.834,5.889,4.766,9.016,4.508C105.385,328.028,103.106,323.895,98.846,325.275z M94.338,321.591
		c-1.063-3.307-2.906-5.835-6.966-6.146C88.198,318.987,92.047,319.512,94.338,321.591z M87.372,332.245
		c2.194,1.501,4.373,5.181,6.557,5.327C92.332,335.48,90.386,331.559,87.372,332.245z M90.242,303.967
		c0.212-0.607,0.604-1.031,0.819-1.639c-1.051-1.447-3.642-0.657-4.097,0.823C87.77,303.709,89.304,303.543,90.242,303.967z
		 M153.759,320.359c-0.058-3.526-3.975-5.572-6.967-3.685C147.74,319.278,150.597,319.969,153.759,320.359z M115.236,266.682
		c0.069-0.678-2.523-0.678-2.457,0C113.341,266.806,115.251,268.532,115.236,266.682z M99.258,265.039c-0.547,0-1.094,0-1.641,0
		c-0.563,0.527-0.405,1.784-0.41,2.865c0.749,0.112,2.298,1.48,2.87,0.415C99.063,267.962,100.195,265.467,99.258,265.039z
		 M68.521,264.627c1.358,3.09,6.855,2.861,7.787-0.407C73.976,263.317,70.541,263.945,68.521,264.627z M69.753,253.153
		c-1.585-0.079-3.021-0.013-4.101,0.412C65.971,255.353,69.742,255.035,69.753,253.153z M73.439,187.18
		c-2.106,0.973-6.498-0.975-8.604,0c1.865,7.383,15.688,3.408,14.753-2.46c-0.794-4.978-13.939-3.745-18.441-3.277
		C64.636,183.963,70.182,184.427,73.439,187.18z M57.049,194.965c0.771,1.142,2.89,0.934,4.098,1.639
		c0.237-0.854,1.017-1.168,0.819-2.458C60.891,193.578,57.023,193.131,57.049,194.965z M77.949,193.327
		c-0.221,0.894-0.994,2.651,0.407,2.869C79.332,195.508,79.128,193.921,77.949,193.327z M89.423,168.739
		c-0.108-1.198,0.925-1.256,0.819-2.458c-1.666-0.163-2.857,0.149-2.87,1.638C88.152,168.097,88.401,168.802,89.423,168.739z
		 M89.013,77.767c-1.632,10,7.378,22.097,18.029,18.439c0.497-3.774-1.225-5.329-1.229-8.604c2.718-0.659,4.318,1.951,5.736,1.229
		C107.563,81.618,96.96,81.021,89.013,77.767z M84.503,68.342c3.602,0.713,9.255,0.352,10.656-2.459
		C92.438,64.065,84.274,63.578,84.503,68.342z M74.668,39.656c0.788-7.959-8.938-12.357-14.75-6.965
		c-3.633,3.368-5.211,11.502,0.409,14.343c-0.638-2.096-2.501-2.963-2.048-6.146C62.55,38.446,70.381,42.079,74.668,39.656z
		 M71.803,65.882c1.042-0.595,2.607-0.666,2.458-2.458C73.001,63.551,70.854,64.909,71.803,65.882z M63.195,96.206
		c5.11,0.121,8.963-2.761,13.933-2.867c4.302-0.091,8.402,1.189,13.523,0.819C86.994,83.425,69.225,92.798,63.195,96.206z
		 M55.41,115.057c9.669-1.229,23.14-7.591,36.061-6.146c4.874,0.544,9.143,3.287,11.883,5.327c-1.397-1.491-3.052-7.61,0-8.604
		c6.725,1.281,6.949,13.987,15.162,12.293c4.184-0.863,5.458-8.979,3.279-13.933c3.127,2.2,4.738,5.916,9.016,6.967
		c-0.976-3.942-3.813-6.023-5.736-9.016c1.208-1.522,2.79-2.674,2.457-5.739c-11.727-1.127-22.136,5.203-33.193,7.377
		c-8.581,1.69-14.967,3.364-22.535,5.327C66.114,110.385,59.783,111.42,55.41,115.057z M20.988,199.884
		c-0.563,0.522-0.714,2.448,0.409,2.458C21.734,202.045,22.497,199.506,20.988,199.884z M35.328,151.12
		c-17.969,2.851,1.184,21.961,11.886,17.212c1.355-2.081,0.934-3.988,0.819-6.97c6.235,0.611,10.926-2.426,16.393-1.227
		c0.882,1.905-0.786,3.518-1.23,5.325c18.593-1.179,27.799-15.788,47.943-18.029c2.503-0.279,5.356,0.164,8.198,0
		c8.483-0.495,17.88-2.067,26.636-3.689c8.591-1.588,16.446-4.747,23.766-6.554c9.187-2.271,23.163-8.271,21.311-20.491
		c-0.212-1.391-1.177-2.641-2.05-4.098c-48.834-4.722-85.346,14.422-123.754,22.129c-4.614,0.925-10.224,0.31-13.934,4.096
		c1.342,3.302,6.058,3.231,8.194,5.737c-1.068,1.252-3.709,0.932-4.096,2.87c0.904,3.466,6.042,2.694,6.556,6.558
		c-8.157,5.75-25.261-1.584-21.309-13.114c-12.325,2.701-30.27,5.385-30.323,19.26c-0.025,6.115,3.62,11.771,7.784,15.162
		C15.297,162.387,20.092,143.297,35.328,151.12z M50.492,227.749c0.373-2.775-4.188-4.718-5.736-2.867
		C46.266,226.239,48.63,226.74,50.492,227.749z M36.149,233.076c2.898,10.076,3.841,22.113,11.474,27.456
		C46.474,248.704,42.277,239.925,36.149,233.076z M53.36,222.422c1.276-5.785-7.211-8.051-7.785-4.099
		C45.074,221.765,50.501,221.365,53.36,222.422z M55,211.356c-1.85-2.023-6.493-3.277-9.834-2.458
		C46.345,211.799,53.599,216.092,55,211.356z M50.083,193.327c1.851-1.154,3.815-2.198,4.096-4.92
		c-2.378-1.78-8.071-2.031-8.604,0.824C45.172,191.389,48.064,192.264,50.083,193.327z M55.41,200.292
		c0.179-1.408-0.162-2.295-0.41-3.279c-2.102-0.052-3.083,1.015-3.278,2.871C52.742,200.228,53.917,200.419,55.41,200.292z
		 M26.725,198.244c-0.316-1.05-0.41-2.323-1.229-2.868C24.477,196.479,24.438,198.46,26.725,198.244z M30.823,170.38
		c-1.839-0.717-4.561,0.048-5.327,1.638c0.86,0.776,2.098,1.181,3.278,1.637C29.188,172.299,31.041,172.374,30.823,170.38z
		 M35.328,223.241c-1.06-2.354-1.193-5.635-3.276-6.965C26.441,217.074,32,225.135,35.328,223.241z M43.115,267.496
		c4.001,9.673,8.224,20.128,16.803,24.586c-6.415-7.137-7.929-18.946-12.295-27.455c-1.51-2.936-3.919-5.219-5.327-8.193
		c-3.313-7.003-4.84-15.174-11.473-18.441C33.437,248.298,39.036,257.624,43.115,267.496z M155.808,421.167
		c-2.48-8.446-9.137-12.722-18.441-14.343c-2.3-5.485-8.938-6.629-10.244-13.112c-0.212-1.331,2.538-1.801,1.641-2.458
		c-12.472,2.362-12.912-10.857-18.851-16.393c-14.987,0.271-12.199-18.272-20.489-27.862c-2.368-2.744-4.716-3.377-7.377-6.146
		c-4.095-12.691-14.782-19.129-20.899-30.323c-5.433-9.947-6.576-21.167-15.571-28.278c7.117,24.095,22.364,44.463,36.061,64.748
		c10.964,16.23,18.42,31.688,30.733,44.663c4.184,4.403,8.908,7.352,13.934,11.473C134.854,410.146,140.741,423.15,155.808,421.167z
		 M154.167,393.3c-0.441-1.755-3.602-2.939-5.327-2.046C150.429,392.128,152.175,392.835,154.167,393.3z M169.329,382.646
		c-2.776-3.235-8.588-4.467-13.932-6.555c-6.629-2.595-16.087-5.052-20.898-2.05c0.484,4.021,3.687,5.327,5.736,7.785
		c5.693,0.877,8.951,3.655,14.341,4.096C160.929,386.447,166.862,386.164,169.329,382.646z M364.796,476.08
		c-12.4-5.655-30.586,0.707-43.848-2.462c-2.503-0.599-4.716-2.32-6.965-2.458c-2.237-0.137-4.841,1.044-6.966,1.231
		c-11.357,1.01-21.725-0.112-32.37-1.643c-7.469-1.073-15.424-1.493-22.132-3.277c-6.425-1.705-13.07-5.639-19.67-8.196
		c-6.697-2.591-13.669-5.173-20.079-7.785c-12.646-5.152-26.086-14.068-39.34-17.619c8.941,9.498,24.334,12.55,34.834,20.489
		c-14.838-4.15-26.034-11.939-39.34-17.62c10.367,9.282,24.833,14.904,39.34,20.896c14.447,5.972,30.146,11.024,47.122,13.523
		C289.103,476.126,328.654,483.503,364.796,476.08z M375.45,474.849c-2.104,0.084-4.725-0.354-4.915,1.639
		C372.318,478.018,375.317,477.859,375.45,474.849z M397.578,426.493c0.582,3.028,4.978,2.125,4.512-1.23
		C399.856,424.946,398.888,425.895,397.578,426.493z M431.59,447.802c-11.016-0.266-24.605-4.071-36.063-3.685
		c-4.396,0.146-9.739,1.198-11.062,5.73c3.381,1.372,7.003,0.549,11.062,0.416C408.818,449.814,425.058,455.786,431.59,447.802z
		 M442.656,446.982c-1.917-0.004-2.482,1.348-2.869,2.865c0.527,0.565,1.779,0.412,2.869,0.416
		C442.461,448.45,443.218,448.222,442.656,446.982z M466.834,445.345c-2-0.304-2.745,2.183-2.05,3.28
		c1.289,0.195,1.601-0.586,2.461-0.823C467.541,446.55,466.538,446.596,466.834,445.345z M500.843,447.802
		c-8.389-0.894-18.186-0.341-25.813,0.823C479.521,452.854,495.652,450.155,500.843,447.802z M106.633,198.651
		c4.042,2.246,7.772,6.978,13.114,6.558c-1.443-1.971-3.489-3.341-4.92-5.325c1.522-0.12,2.815-0.463,3.279-1.64
		c-4.984-3.487-11.376-7.746-13.932-12.297C105.861,189.216,108.443,194.424,106.633,198.651z M159.086,201.933
		c-0.877-0.898-0.482-3.073-1.641-3.688C157.184,200.028,158.338,202.521,159.086,201.933z M121.385,237.586
		c0.628,6.747,4.94,9.806,5.327,16.8c-4.79-5.454-7.464-13.027-10.654-20.083c-0.313,8.535,2.267,13.823,4.508,19.674
		c1.725,4.496,3.342,9.773,7.785,11.063c2.075-0.387,1.959-2.966,4.101-3.281c2.278,0.328,3.464,3.904,4.915,3.692
		c-1.094-1.23-1.435-3.21-1.639-5.327c0.396-1.518,2.566-1.26,3.277-2.462C134.884,249.219,128.977,242.557,121.385,237.586z">

</path>

</g>


  </symbol>
  <symbol id="git" viewBox="0 0 32 32">

<path d="M2.58536 17.4132C1.80488 16.6327 1.80488 15.3673 2.58536 14.5868L14.5868 2.58536C15.3673 1.80488 16.6327 1.80488 17.4132 2.58536L29.4146 14.5868C30.1951 15.3673 30.1951 16.6327 29.4146 17.4132L17.4132 29.4146C16.6327 30.1951 15.3673 30.1951 14.5868 29.4146L2.58536 17.4132Z" fill="#EE513B"/>
<path d="M12.1489 5.06152L10.9336 6.27686L14.0725 9.41577C13.9455 9.68819 13.8746 9.99201 13.8746 10.3124C13.8746 11.222 14.4461 11.9981 15.2496 12.3012V19.9798C14.4461 20.2829 13.8746 21.059 13.8746 21.9686C13.8746 23.1422 14.826 24.0936 15.9996 24.0936C17.1732 24.0936 18.1246 23.1422 18.1246 21.9686C18.1246 21.144 17.6549 20.429 16.9684 20.0768V12.3117L19.9689 15.3122C19.8481 15.5791 19.7809 15.8754 19.7809 16.1874C19.7809 17.361 20.7323 18.3124 21.9059 18.3124C23.0795 18.3124 24.0309 17.361 24.0309 16.1874C24.0309 15.0138 23.0795 14.0624 21.9059 14.0624C21.6778 14.0624 21.4582 14.0983 21.2522 14.1648L18.0297 10.9423C18.0914 10.7433 18.1246 10.5317 18.1246 10.3124C18.1246 9.13878 17.1732 8.18738 15.9996 8.18738C15.7803 8.18738 15.5688 8.22061 15.3697 8.2823L12.1489 5.06152Z" fill="white"/>

  </symbol>
  <symbol id="github" viewBox="0 -0.5 48 48">

    
    <title>Github-color</title>
    <desc>Created with Sketch.</desc>
    <defs>

</defs>
    <g id="Icons" stroke="none" stroke-width="1" fill="none" fill-rule="evenodd">
        <g id="Color-" transform="translate(-700.000000, -560.000000)" fill="#3E75C3">
            <path d="M723.9985,560 C710.746,560 700,570.787092 700,584.096644 C700,594.740671 706.876,603.77183 716.4145,606.958412 C717.6145,607.179786 718.0525,606.435849 718.0525,605.797328 C718.0525,605.225068 718.0315,603.710086 718.0195,601.699648 C711.343,603.155898 709.9345,598.469394 709.9345,598.469394 C708.844,595.686405 707.2705,594.94548 707.2705,594.94548 C705.091,593.450075 707.4355,593.480194 707.4355,593.480194 C709.843,593.650366 711.1105,595.963499 711.1105,595.963499 C713.2525,599.645538 716.728,598.58234 718.096,597.964902 C718.3135,596.407754 718.9345,595.346062 719.62,594.743683 C714.2905,594.135281 708.688,592.069123 708.688,582.836167 C708.688,580.205279 709.6225,578.054788 711.1585,576.369634 C710.911,575.759726 710.0875,573.311058 711.3925,569.993458 C711.3925,569.993458 713.4085,569.345902 717.9925,572.46321 C719.908,571.928599 721.96,571.662047 724.0015,571.651505 C726.04,571.662047 728.0935,571.928599 730.0105,572.46321 C734.5915,569.345902 736.603,569.993458 736.603,569.993458 C737.9125,573.311058 737.089,575.759726 736.8415,576.369634 C738.3805,578.054788 739.309,580.205279 739.309,582.836167 C739.309,592.091712 733.6975,594.129257 728.3515,594.725612 C729.2125,595.469549 729.9805,596.939353 729.9805,599.18773 C729.9805,602.408949 729.9505,605.006706 729.9505,605.797328 C729.9505,606.441873 730.3825,607.191834 731.6005,606.9554 C741.13,603.762794 748,594.737659 748,584.096644 C748,570.787092 737.254,560 723.9985,560" id="Github">

</path>
        </g>
    </g>

  </symbol>
  <symbol id="html" viewBox="0 0 32 32">

<path d="M6 28L4 3H28L26 28L16 31L6 28Z" fill="#E44D26"/>
<path d="M26 5H16V29.5L24 27L26 5Z" fill="#F16529"/>
<path d="M9.5 17.5L8.5 8H24L23.5 11H11.5L12 14.5H23L22 24L16 26L10 24L9.5 19H12.5L13 21.5L16 22.5L19 21.5L19.5 17.5H9.5Z" fill="white"/>

  </symbol>
  <symbol id="javascript" viewBox="0 0 512 512">
<rect
width="512" height="512"
rx="15%"
fill="#f7df1e"/><path d="M324 370c10 17 24 29 47 29c20 0 33-10 33 -24c0-16 -13 -22 -35 -32l-12-5c-35-15 -58 -33 -58 -72c0-36 27 -64 70 -64c31 0 53 11 68 39l-37 24c-8-15 -17 -21 -31 -21c-14 0-23 9 -23 21c0 14 9 20 30 29l12 5c41 18 64 35 64 76c0 43-34 67 -80 67c-45 0-74 -21 -88 -49zm-170 4c8 13 14 25 31 25c16 0 26-6 26 -30V203h48v164c0 50-29 72 -72 72c-39 0-61 -20 -72 -44z"/>
  </symbol>
  <symbol id="linux" viewBox="0 0 16 16">
<path fill="#202020" d="M13.338 12.033c-.1-.112-.146-.319-.197-.54-.05-.22-.107-.457-.288-.61v-.001a.756.756 0 00-.223-.134c.252-.745.153-1.487-.1-2.157-.312-.823-.855-1.54-1.27-2.03-.464-.586-.918-1.142-.91-1.963.014-1.254.138-3.579-2.068-3.582-.09 0-.183.004-.28.012-2.466.198-1.812 2.803-1.849 3.675-.045.638-.174 1.14-.613 1.764-.515.613-1.24 1.604-1.584 2.637-.162.487-.24.984-.168 1.454-.023.02-.044.041-.064.063-.151.161-.263.357-.388.489-.116.116-.282.16-.464.225-.183.066-.383.162-.504.395v.001a.702.702 0 00-.077.339c0 .108.016.217.032.322.034.22.068.427.023.567-.144.395-.163.667-.061.865.102.199.31.286.547.335.473.1 1.114.075 1.619.342l.043-.082-.043.082c.54.283 1.089.383 1.526.284a.99.99 0 00.706-.552c.342-.002.717-.146 1.318-.18.408-.032.918.145 1.503.113a.806.806 0 00.068.183l.001.001c.227.455.65.662 1.1.627.45-.036.928-.301 1.315-.762l-.07-.06.07.06c.37-.448.982-.633 1.388-.878.203-.123.368-.276.38-.499.013-.222-.118-.471-.418-.805z"/><path fill="#F8BF11" d="M13.571 12.828c-.007.137-.107.24-.29.35-.368.222-1.019.414-1.434.918-.362.43-.802.665-1.19.696-.387.03-.721-.13-.919-.526v-.002c-.123-.233-.072-.6.031-.987s.251-.785.271-1.108v-.001c.02-.415.044-.776.114-1.055.07-.28.179-.468.373-.575a.876.876 0 01.027-.014c.022.359.2.725.514.804.343.09.838-.204 1.047-.445l.122-.004c.184-.005.337.006.495.143v.001c.121.102.179.296.229.512.05.217.09.453.239.621.287.32.38.534.371.672zM6.592 13.843v.003c-.034.435-.28.672-.656.758-.377.086-.888 0-1.398-.266-.565-.3-1.237-.27-1.667-.36-.216-.045-.357-.113-.421-.238-.064-.126-.066-.345.071-.72v-.001l.001-.002c.068-.209.018-.438-.015-.653-.033-.214-.049-.41.024-.546l.001-.001c.094-.181.232-.246.403-.307.17-.062.373-.11.533-.27l.001-.001h.001c.148-.157.26-.353.39-.492.11-.117.22-.195.385-.196h.005a.61.61 0 01.093.008c.22.033.411.187.596.437l.533.971v.001c.142.296.441.622.695.954.254.333.45.666.425.921z"/><path fill="#D6A312" d="M9.25 4.788c-.043-.084-.13-.164-.28-.225-.31-.133-.444-.142-.617-.254-.28-.181-.513-.244-.706-.244a.834.834 0 00-.272.047c-.236.08-.392.25-.49.342-.02.019-.044.035-.104.08-.06.043-.15.11-.28.208-.117.086-.154.2-.114.332.04.132.167.285.4.417h.001c.145.085.244.2.358.291a.801.801 0 00.189.117c.072.031.156.052.26.058.248.015.43-.06.59-.151.16-.092.296-.204.452-.255h.001c.32-.1.548-.301.62-.493a.324.324 0 00-.008-.27z"/><path fill="#202020" d="M8.438 5.26c-.255.133-.552.294-.869.294-.316 0-.566-.146-.745-.289-.09-.07-.163-.142-.218-.193-.096-.075-.084-.181-.045-.178.066.008.076.095.117.134.056.052.126.12.211.187.17.135.397.266.68.266.284 0 .614-.166.816-.28.115-.064.26-.179.379-.266.09-.067.087-.147.162-.138.075.009.02.089-.085.18-.105.092-.27.214-.403.283z"/><path fill="#ffffff" d="M12.337 10.694a1.724 1.724 0 00-.104 0h-.01c.088-.277-.106-.48-.621-.713-.534-.235-.96-.212-1.032.265-.005.025-.009.05-.011.076a.801.801 0 00-.12.054c-.252.137-.389.386-.465.692-.076.305-.098.674-.119 1.09-.013.208-.099.49-.186.79-.875.624-2.09.894-3.122.19-.07-.11-.15-.22-.233-.328a13.85 13.85 0 00-.16-.205.65.65 0 00.268-.05.34.34 0 00.186-.192c.063-.17 0-.408-.202-.68-.201-.273-.542-.58-1.043-.888-.368-.23-.574-.51-.67-.814-.097-.305-.084-.635-.01-.96.143-.625.51-1.233.743-1.614.063-.046.023.086-.236.567-.232.44-.667 1.455-.072 2.248.016-.564.15-1.14.377-1.677.329-.747 1.018-2.041 1.072-3.073.029.02.125.086.169.11.126.075.221.184.344.283a.85.85 0 00.575.2c.24 0 .427-.079.582-.168.17-.096.304-.204.433-.245.27-.085.486-.235.608-.41.21.83.7 2.027 1.014 2.611.167.31.5.969.643 1.762.091-.002.191.01.299.038.375-.973-.319-2.022-.636-2.314-.128-.124-.135-.18-.07-.177.343.304.795.917.96 1.608.075.315.09.646.01.973.04.017.08.034.12.054.603.293.826.548.719.897z"/><path fill="#E6E6E6" d="M8.04 8.062c-.556.002-1.099.251-1.558.716-.46.464-.814 1.122-1.018 1.888l.061.038v.004c.47.298.805.598 1.012.878.219.296.316.584.223.834a.513.513 0 01-.27.283l-.041.015c.074.097.146.197.213.3.944.628 2.042.396 2.867-.172.08-.278.153-.536.163-.698.021-.415.042-.792.124-1.12.082-.33.242-.63.544-.795.017-.01.034-.015.051-.023a.756.756 0 01.022-.094c-.242-.622-.591-1.14-1.01-1.5-.42-.36-.897-.551-1.382-.554zm2.37 2.155l-.002.005v-.002l.001-.004z"/><path fill="#ffffff" d="M9.278 3.833a1.05 1.05 0 01-.215.656 4.119 4.119 0 00-.218-.09l-.127-.045c.029-.035.085-.075.107-.127a.669.669 0 00.05-.243l.001-.01a.673.673 0 00-.035-.236.434.434 0 00-.108-.184.223.223 0 00-.156-.07H8.57a.228.228 0 00-.151.06.434.434 0 00-.122.175.676.676 0 00-.05.243v.01a.718.718 0 00.009.14 1.773 1.773 0 00-.354-.12 1.196 1.196 0 01-.01-.133v-.013a1.035 1.035 0 01.088-.447.793.793 0 01.25-.328.554.554 0 01.346-.123h.006c.125 0 .232.036.342.116a.78.78 0 01.257.324c.063.138.094.273.097.433l.001.012zM7.388 3.997a1.05 1.05 0 00-.277.125.623.623 0 00.002-.15v-.008a.651.651 0 00-.048-.192.37.37 0 00-.096-.141.158.158 0 00-.119-.045c-.042.004-.077.024-.11.065a.372.372 0 00-.07.156.626.626 0 00-.013.205v.008a.634.634 0 00.048.193.367.367 0 00.116.156l-.102.08-.078.056a.706.706 0 01-.16-.24c-.053-.12-.082-.24-.09-.381v-.001a1.071 1.071 0 01.045-.39.668.668 0 01.167-.292.359.359 0 01.264-.118c.084 0 .158.028.235.09a.68.68 0 01.199.271c.053.12.08.24.089.382v.001c.003.06.003.115-.002.17z"/><path fill="#202020" d="M7.806 4.335c.01.034.065.029.097.045.027.014.05.045.08.046.03.001.076-.01.08-.04.005-.038-.052-.063-.088-.077-.047-.019-.107-.028-.151-.003-.01.005-.021.018-.018.03zM7.484 4.335c-.01.034-.065.029-.096.045-.028.014-.05.045-.081.046-.03.001-.076-.01-.08-.04-.005-.038.052-.063.088-.077.047-.019.108-.028.152-.003.01.005.02.018.017.03z"/>
  </symbol>
  <symbol id="postgres" viewBox="-4 0 264 264">

    <g>
        <path d="M255.007926,158.085617 C253.473109,153.437413 249.452194,150.199279 244.251788,149.42182 C241.799982,149.055852 238.991667,149.211935 235.668988,149.897164 C229.877358,151.092028 225.580342,151.546679 222.44449,151.635363 C234.280794,131.650217 243.905921,108.859714 249.446873,87.4065589 C258.406282,52.7182633 253.61855,36.9154365 248.023797,29.7669469 C233.217182,10.8477783 211.614448,0.683454965 185.55152,0.371879908 C171.649478,0.202198614 159.443658,2.94725173 153.077358,4.92075751 C147.149155,3.87547344 140.774577,3.29134411 134.08606,3.18315012 C121.550337,2.9833164 110.473164,5.71595381 101.008259,11.332582 C95.7670577,9.56127483 87.3580785,7.06335335 77.6460416,5.46882217 C54.8035104,1.71868822 36.3939769,4.64110855 22.9282587,14.153903 C6.62230023,25.6721293 -0.937090069,45.6838799 0.461154734,73.6339954 C0.904572748,82.5082679 5.86908083,109.507695 13.6850624,135.114199 C18.1771824,149.831538 22.9672794,162.053912 27.9223279,171.443732 C34.9490254,184.758688 42.4676212,192.600092 50.9085266,195.415501 C55.6400924,196.992296 64.2358984,198.09552 73.2774873,190.566873 C74.4232794,191.953885 75.9515935,193.33321 77.9812656,194.613801 C80.5578199,196.239076 83.7090439,197.566965 86.8555381,198.353885 C98.1969885,201.189395 108.820102,200.479926 117.882975,196.506309 C117.93855,198.117986 117.981709,199.658125 118.018365,200.987788 C118.07867,203.145164 118.137792,205.259972 118.217016,207.237617 C118.753848,220.612286 119.663741,231.011326 122.359723,238.286928 C122.507529,238.687778 122.706771,239.29733 122.917247,239.943538 C124.261691,244.062005 126.511298,250.955677 132.232573,256.355326 C138.158411,261.947714 145.325229,263.663446 151.888998,263.662855 C155.180933,263.662855 158.322106,263.231261 161.076619,262.640628 C170.897441,260.536462 182.050291,257.329663 190.118134,245.84218 C197.745515,234.981986 201.453672,218.625182 202.124711,192.851363 C202.211621,192.122975 202.292028,191.427104 202.369478,190.763751 C202.421506,190.316194 202.474716,189.858587 202.528517,189.402162 L204.325838,189.560018 L204.788767,189.591353 C214.791095,190.047187 227.021155,187.925875 234.532065,184.437062 C240.467363,181.68255 259.485857,171.642383 255.007926,158.085617" fill="#000000">

</path>
        <path d="M237.905589,160.722476 C208.165838,166.857016 206.121386,156.78788 206.121386,156.78788 C237.521885,110.194697 250.64824,51.0516028 239.320388,36.5766651 C208.417109,-2.90823095 154.921977,15.7655797 154.029229,16.2503834 L153.741894,16.3018199 C147.866309,15.0821247 141.290716,14.3555104 133.900416,14.2349007 C120.443566,14.0143741 110.236083,17.7627344 102.490457,23.636545 C102.490457,23.636545 7.06039723,-15.6768961 11.4987159,73.0806097 C12.4429007,91.9631224 38.5625866,215.954032 69.7171363,178.502947 C81.1041109,164.808425 92.1061986,153.229303 92.1061986,153.229303 C97.5708822,156.859418 104.112776,158.711132 110.970975,158.046005 L111.503667,157.593718 C111.338125,159.294079 111.413801,160.957192 111.717099,162.925968 C103.691233,171.893062 106.049626,173.467492 90.0055797,176.770069 C73.7711594,180.115806 83.308194,186.072388 89.5349654,187.629081 C97.0837136,189.516859 114.54788,192.190965 126.34812,175.672166 L125.877506,177.556988 C129.022226,180.075603 131.230448,193.940397 130.860342,206.508637 C130.490236,219.077469 130.243104,227.706383 132.720924,234.446337 C135.198744,241.186291 137.668286,256.351187 158.759612,251.831871 C176.383409,248.055132 185.516046,238.268009 186.786587,221.94254 C187.688203,210.336222 189.728517,212.051954 189.857404,201.675381 L191.493912,196.762901 C193.381099,181.029838 191.793663,175.95418 202.651492,178.314938 L205.290125,178.546697 C213.2817,178.9103 223.741044,177.261376 229.879723,174.408129 C243.098309,168.273589 250.93794,158.031224 237.904406,160.722476 L237.905589,160.722476" fill="#336791">

</path>
        <path d="M108.076342,81.5250624 C105.396915,81.152 102.969349,81.4972748 101.741376,82.426679 C101.050236,82.9499122 100.836804,83.5559169 100.779455,83.973321 C100.625145,85.0783187 101.399649,86.2997875 101.874993,86.9300323 C103.220619,88.7137552 105.18703,89.9399538 107.133339,90.2101432 C107.415353,90.249164 107.695594,90.2680831 107.974651,90.2680831 C111.220471,90.2680831 114.170679,87.7411917 114.430818,85.8758799 C114.755991,83.5399538 111.36473,81.9826697 108.076342,81.5250624" fill="#FFFFFF">

</path>
        <path d="M196.860453,81.5989654 L196.859861,81.5989654 C196.604453,79.7679446 193.345626,79.2458938 190.253524,79.6757136 C187.166152,80.1061247 184.171603,81.4996397 184.421691,83.3347991 C184.622707,84.7620139 187.19867,87.198448 190.249386,87.1978568 C190.506568,87.1978568 190.766707,87.1807113 191.028619,87.1440554 C193.064794,86.8620416 194.558818,85.5690346 195.268286,84.8235012 C196.349635,83.688351 196.974559,82.4219492 196.860453,81.5989654" fill="#FFFFFF">

</path>
        <path d="M247.802088,160.025423 C246.66812,156.596323 243.018494,155.492508 236.954309,156.745312 C218.949173,160.461155 212.501284,157.886965 210.38352,156.327908 C224.378975,135.007187 235.89188,109.236323 242.102688,85.1906513 C245.04521,73.8007206 246.670485,63.2231316 246.802919,54.601903 C246.949543,45.1375889 245.338457,38.1842032 242.014005,33.9362587 C228.611547,16.8108637 208.942115,7.62501617 185.131751,7.37256351 C168.763122,7.18869284 154.93321,11.3781062 152.252009,12.5558245 C146.60582,11.1516674 140.450587,10.2896628 133.750245,10.1796952 C121.461654,9.98104388 110.840314,12.9229746 102.045857,18.9191686 C98.2259584,17.4978661 88.3536998,14.10897 76.2814965,12.1644342 C55.4089238,8.80332564 38.8233164,11.3497275 26.9870115,19.7350577 C12.8638522,29.740933 6.34383372,47.626642 7.60727945,72.8943741 C8.03236952,81.3961755 12.8756767,107.547788 20.5202032,132.593219 C30.5822448,165.556915 41.5192979,184.218309 53.0280647,188.056536 C54.374873,188.505866 55.9286097,188.820397 57.6407945,188.820397 C61.8390762,188.820397 66.9856813,186.927889 72.3409885,180.490051 C81.2359538,169.788896 89.5408776,160.821801 92.6022356,157.563566 C97.1262818,159.992314 102.09552,161.347991 107.179455,161.483972 C107.188323,161.616998 107.201921,161.750023 107.213746,161.882457 C106.193885,163.092102 105.357303,164.152166 104.644286,165.05733 C101.122365,169.528166 100.389247,170.458753 89.0519353,172.793497 C85.8273995,173.458624 77.2611547,175.224018 77.1364065,181.227898 C76.9998337,187.787529 87.2605266,190.542633 88.4299677,190.834697 C92.5040924,191.854559 96.4286374,192.357691 100.171677,192.357691 C109.275344,192.357099 117.285838,189.365506 123.688203,183.576831 C123.490734,206.962697 124.466254,230.006836 127.273977,237.028212 C129.573247,242.775501 135.191649,256.822984 152.93842,256.821801 C155.54158,256.821801 158.408425,256.519095 161.561423,255.843326 C180.082106,251.872074 188.124527,243.686577 191.236139,225.640055 C192.901025,215.995418 195.758411,192.963695 197.101672,180.610069 C199.937774,181.49454 203.589173,181.899529 207.536185,181.898938 C215.768388,181.898938 225.266993,180.150097 231.224166,177.384942 C237.91564,174.277469 249.991982,166.650679 247.802088,160.025423 L247.802088,160.025423 Z M203.696185,76.5445912 C203.634697,80.1918522 203.132748,83.5027067 202.600647,86.9590023 C202.028342,90.6760277 201.435935,94.5189838 201.286947,99.1843326 C201.139732,103.724342 201.706716,108.444674 202.255372,113.008924 C203.363326,122.228471 204.500249,131.720573 200.098587,141.086744 C199.41454,139.871778 198.754143,138.546254 198.14873,137.078245 C197.601848,135.752129 196.414079,133.621949 194.769885,130.673515 C188.370476,119.197857 173.385312,92.3243603 181.056443,81.3583372 C183.340933,78.0935982 189.139658,74.7384018 203.696185,76.5445912 L203.696185,76.5445912 Z M186.052286,14.7581339 C207.386014,15.2293395 224.261321,23.2102725 236.209958,38.4780416 C245.373931,50.1890069 235.282919,103.476028 206.069949,149.446651 C205.781432,149.080092 205.487594,148.709986 205.183704,148.33042 C205.062503,148.178476 204.938938,148.024166 204.814189,147.868083 C212.362938,135.400942 210.886651,123.066236 209.572952,112.129774 C209.033164,107.641792 208.523529,103.402716 208.653007,99.4214134 C208.787215,95.2000739 209.34533,91.5811917 209.884527,88.0811455 C210.548471,83.7675751 211.223058,79.3050162 211.036822,74.0437136 C211.17576,73.4921016 211.231926,72.8399815 211.159206,72.0660693 C210.683861,67.0205635 204.924157,51.9224758 193.18363,38.2551501 C186.762346,30.7808961 177.396767,22.4156674 164.609774,16.7736166 C170.109931,15.6337367 177.631483,14.5707159 186.052286,14.7581339 L186.052286,14.7581339 Z M66.6741062,175.777995 C60.7742818,182.871501 56.6995658,181.512277 55.3598522,181.065903 C46.6292471,178.153533 36.499806,159.702023 27.568776,130.441755 C19.8408868,105.123769 15.3245266,79.6650716 14.9674273,72.5260416 C13.8387806,49.9483788 19.3117413,34.2129515 31.2349561,25.7572656 C50.6389284,11.9965266 82.5413764,20.2328684 95.3602956,24.4104573 C95.1758337,24.591963 94.9842771,24.7622356 94.8015889,24.9466975 C73.7664296,46.1911501 74.2654226,82.4875751 74.3168591,84.7058476 C74.3150855,85.56194 74.3866236,86.7739492 74.485358,88.4412009 C74.8471871,94.5455889 75.5205912,105.907732 73.7214965,118.775132 C72.0489238,130.732046 75.7346143,142.435326 83.8320185,150.883917 C84.6703741,151.758337 85.5453857,152.579547 86.4493672,153.352277 C82.8446744,157.212379 75.0115473,165.74788 66.6741062,175.777995 L66.6741062,175.777995 Z M89.1530346,145.78461 C82.6265127,138.975483 79.6627067,129.503483 81.020157,119.795584 C82.920351,106.202753 82.2185681,94.3646744 81.8419584,88.0048776 C81.7893395,87.1150855 81.7426328,86.335261 81.7148453,85.7197968 C84.7880277,82.9954365 99.0288406,75.3645081 109.184296,77.6915658 C113.819492,78.7534042 116.642587,81.9087667 117.816758,87.3373857 C123.893358,115.440037 118.621413,127.153367 114.385293,136.565654 C113.512055,138.504868 112.687298,140.337663 111.982559,142.234309 L111.436859,143.699954 C110.054577,147.406337 108.768665,150.851991 107.971695,154.124416 C101.034273,154.103132 94.2848591,151.139917 89.1530346,145.78461 L89.1530346,145.78461 Z M90.2178291,183.685025 C88.1922956,183.178938 86.3701432,182.299788 85.3012102,181.570808 C86.1939584,181.150448 87.7831686,180.579326 90.5388637,180.011751 C103.876286,177.265515 105.93552,175.328074 110.433552,169.61685 C111.465238,168.30788 112.634088,166.823316 114.252859,165.015353 C114.25345,165.014171 114.254042,165.01358 114.254633,165.012988 C116.666236,162.31346 117.768868,162.771067 119.768979,163.600554 C121.390115,164.271594 122.968684,166.303039 123.608979,168.539048 C123.911686,169.594975 124.252231,171.599815 123.138956,173.158873 C113.742633,186.31479 100.051067,186.1457 90.2178291,183.685025 L90.2178291,183.685025 Z M160.016554,248.637487 C143.700545,252.133395 137.923695,243.80837 134.116804,234.291436 C131.659677,228.146845 130.452397,200.440314 131.309081,169.84388 C131.320314,169.436527 131.262374,169.043363 131.150042,168.673848 C131.05249,167.96024 130.902319,167.238356 130.694208,166.511741 C129.419529,162.059824 126.315012,158.335704 122.5903,156.792018 C121.110467,156.178919 118.393792,155.05382 115.129644,155.888628 C115.826106,153.0206 117.033386,149.782467 118.341764,146.275326 L118.891012,144.79963 C119.509432,143.136517 120.284527,141.413691 121.105145,139.590356 C125.538143,129.741746 131.609423,116.25297 125.020231,85.7795104 C122.551871,74.3659307 114.310208,68.7924619 101.815871,70.0866513 C94.3250624,70.861746 87.472776,73.8840831 84.0549099,75.6169607 C83.3200185,75.9894319 82.6477968,76.3488961 82.0199169,76.6994919 C82.9735612,65.1990023 86.578254,43.707418 100.060527,30.1098568 C108.54873,21.548933 119.854115,17.3210901 133.628453,17.5487113 C160.768591,17.9933118 178.172453,31.9213672 187.994457,43.5276859 C196.457829,53.5294226 201.040998,63.6038799 202.870245,69.0372286 C189.115418,67.6389838 179.76048,70.3544758 175.017681,77.1340416 C164.700822,91.8815335 180.662097,120.506236 188.333229,134.262836 C189.739751,136.784406 190.954125,138.963067 191.336055,139.888924 C193.833977,145.943058 197.067972,149.984665 199.429321,152.935464 C200.152979,153.839446 200.855353,154.716231 201.389229,155.481866 C197.223464,156.683233 189.740342,159.457848 190.422023,173.328554 C189.872185,180.289035 185.960647,212.874938 183.974134,224.387843 C181.351464,239.597672 175.754346,245.263372 160.016554,248.637487 L160.016554,248.637487 Z M228.120831,170.700564 C223.861062,172.678208 216.732083,174.161589 209.959612,174.479667 C202.479446,174.830263 198.671963,173.641903 197.776259,172.91115 C197.355307,164.267455 200.573339,163.364065 203.978199,162.408055 C204.513256,162.257293 205.035307,162.111261 205.53903,161.935076 C205.852379,162.189894 206.195289,162.442938 206.570716,162.690661 C212.582873,166.658956 223.306494,167.087002 238.444785,163.962383 C238.50036,163.950559 238.555935,163.939917 238.610919,163.928684 C236.569423,165.837746 233.075289,168.400111 228.120831,170.700564 L228.120831,170.700564 Z" fill="#FFFFFF">

</path>
    </g>

  </symbol>
  <symbol id="python" viewBox="0 0 32 32">

<path fill-rule="evenodd" clip-rule="evenodd" d="M13.0164 2C10.8193 2 9.03825 3.72453 9.03825 5.85185V8.51852H15.9235V9.25926H5.97814C3.78107 9.25926 2 10.9838 2 13.1111L2 18.8889C2 21.0162 3.78107 22.7407 5.97814 22.7407H8.27322V19.4815C8.27322 17.3542 10.0543 15.6296 12.2514 15.6296H19.5956C21.4547 15.6296 22.9617 14.1704 22.9617 12.3704V5.85185C22.9617 3.72453 21.1807 2 18.9836 2H13.0164ZM12.0984 6.74074C12.8589 6.74074 13.4754 6.14378 13.4754 5.40741C13.4754 4.67103 12.8589 4.07407 12.0984 4.07407C11.3378 4.07407 10.7213 4.67103 10.7213 5.40741C10.7213 6.14378 11.3378 6.74074 12.0984 6.74074Z" fill="url(#python-grad-0)"/>
<path fill-rule="evenodd" clip-rule="evenodd" d="M18.9834 30C21.1805 30 22.9616 28.2755 22.9616 26.1482V23.4815L16.0763 23.4815L16.0763 22.7408L26.0217 22.7408C28.2188 22.7408 29.9998 21.0162 29.9998 18.8889V13.1111C29.9998 10.9838 28.2188 9.25928 26.0217 9.25928L23.7266 9.25928V12.5185C23.7266 14.6459 21.9455 16.3704 19.7485 16.3704L12.4042 16.3704C10.5451 16.3704 9.03809 17.8296 9.03809 19.6296L9.03809 26.1482C9.03809 28.2755 10.8192 30 13.0162 30H18.9834ZM19.9015 25.2593C19.1409 25.2593 18.5244 25.8562 18.5244 26.5926C18.5244 27.329 19.1409 27.9259 19.9015 27.9259C20.662 27.9259 21.2785 27.329 21.2785 26.5926C21.2785 25.8562 20.662 25.2593 19.9015 25.2593Z" fill="url(#python-grad-1)"/>
<defs>
<linearGradient id="python-grad-0" x1="12.4809" y1="2" x2="12.4809" y2="22.7407" gradientUnits="userSpaceOnUse">
<stop stop-color="#327EBD"/>
<stop offset="1" stop-color="#1565A7"/>
</linearGradient>
<linearGradient id="python-grad-1" x1="19.519" y1="9.25928" x2="19.519" y2="30" gradientUnits="userSpaceOnUse">
<stop stop-color="#FFDA4B"/>
<stop offset="1" stop-color="#F9C600"/>
</linearGradient>
</defs>

  </symbol>
  <symbol id="rest-api" viewBox="0 0 20 20">


<rect x="0" fill="none" width="20" height="20"/>

<g>

<path d="M16 13c-1.3 0-2.4.8-2.8 2H9c0-.7-.2-1.3-.5-1.8l7.1-7.3c.3 0 .6.1.9.1C17.9 6 19 4.9 19 3.5S17.9 1 16.5 1 14 2.1 14 3.5c0 .3.1.7.2 1l-7 7.2c-.6-.5-1.4-.7-2.2-.7V6.8C6.2 6.4 7 5.3 7 4c0-1.7-1.3-3-3-3S1 2.3 1 4c0 1.3.8 2.4 2 2.8v4.7c-1.2.7-2 2-2 3.4 0 2.2 1.8 4 4 4 1.5 0 2.8-.8 3.4-2h4.7c.4 1.1 1.5 2 2.8 2 1.6 0 3-1.3 3-3C19 14.3 17.6 13 16 13z"/>

</g>


  </symbol>
</svg>